HIERARCHY
ROOT Hips
{
	OFFSET 23.497593 106.474762 21.262596
	CHANNELS 6 Xposition Yposition Zposition Xrotation Yrotation Zrotation
	JOINT Chest
	{
		OFFSET 0.580036 13.621132 0.531460
		CHANNELS 3 Xrotation Yrotation Zrotation
		JOINT Chest2
		{
			OFFSET -2.424541 20.719734 4.886827
			CHANNELS 3 Xrotation Yrotation Zrotation
			JOINT Chest3
			{
				OFFSET -1.881546 14.726471 1.552645
				CHANNELS 3 Xrotation Yrotation Zrotation
				JOINT Neck
				{
					OFFSET -1.286528 16.995468 2.848719
					CHANNELS 3 Xrotation Yrotation Zrotation
					JOINT Head
					{
						OFFSET -2.452715 9.371277 3.998899
						CHANNELS 3 Xrotation Yrotation Zrotation
						End Site
						{
							OFFSET -2.461088 9.397644 3.931290
						}
					}
				}
				JOINT LeftCollar
				{
					OFFSET 3.900276 13.165176 3.642878
					CHANNELS 3 Xrotation Yrotation Zrotation
					JOINT LeftUpArm
					{
						OFFSET 11.508392 4.641510 -12.430315
						CHANNELS 3 Xrotation Yrotation Zrotation
						JOINT LeftLowArm
						{
							OFFSET 30.675648 0.582581 -14.085207
							CHANNELS 3 Xrotation Yrotation Zrotation
							JOINT LeftHand
							{
								OFFSET 9.183357 -20.593231 19.812431
								CHANNELS 3 Xrotation Yrotation Zrotation
								End Site
								{
									OFFSET 2.007095 -4.500763 4.330112
								}
							}
						}
					}
				}
				JOINT RightCollar
				{
					OFFSET -4.068437 12.141678 6.151100
					CHANNELS 3 Xrotation Yrotation Zrotation
					JOINT RightUpArm
					{
						OFFSET -17.383726 -2.114166 -1.353813
						CHANNELS 3 Xrotation Yrotation Zrotation
						JOINT RightLowArm
						{
							OFFSET -27.448490 -15.287903 12.352943
							CHANNELS 3 Xrotation Yrotation Zrotation
							JOINT RightHand
							{
								OFFSET 14.298917 -9.177490 24.744087
								CHANNELS 3 Xrotation Yrotation Zrotation
								End Site
								{
									OFFSET 3.125172 -2.005844 5.408058
								}
							}
						}
					}
				}
			}
		}
	}
	JOINT LeftUpLeg
	{
		OFFSET 9.777130 -0.331818 -2.171806
		CHANNELS 3 Xrotation Yrotation Zrotation
		JOINT LeftLowLeg
		{
			OFFSET -2.538305 -47.302231 -0.213335
			CHANNELS 3 Xrotation Yrotation Zrotation
			JOINT LeftFoot
			{
				OFFSET -5.695713 -42.619003 -12.318569
				CHANNELS 3 Xrotation Yrotation Zrotation
				JOINT LeftToe
				{
					OFFSET 1.715792 -19.607395 13.121193
					CHANNELS 3 Xrotation Yrotation Zrotation
					End Site
					{
						OFFSET 6.331409 -6.981546 21.696318
					}
				}
			}
		}
	}
	JOINT RightUpLeg
	{
		OFFSET -9.777143 0.331619 2.171801
		CHANNELS 3 Xrotation Yrotation Zrotation
		JOINT RightLowLeg
		{
			OFFSET -8.868001 -42.333626 19.319288
			CHANNELS 3 Xrotation Yrotation Zrotation
			JOINT RightFoot
			{
				OFFSET -10.327073 -40.017891 -17.102621
				CHANNELS 3 Xrotation Yrotation Zrotation
				JOINT RightToe
				{
					OFFSET -4.248121 -21.662176 8.500608
					CHANNELS 3 Xrotation Yrotation Zrotation
					End Site
					{
						OFFSET -3.333981 -11.248210 20.540649
					}
				}
			}
		}
	}
}
MOTION
Frames: 11
Frame Time: 0.033333
-0.161331 106.130440 -1.111738 -0.582009 -12.516819 1.942540 -16.463536 0.190606 -7.873933 2.605302 0.542928 0.442139 -3.048544 -5.642845 2.139930 -5.520712 15.716892 -6.475483 -0.000001 0.000000 0.000000 0.286846 1.811440 -8.156582 -2.865595 -10.283400 16.037923 -43.431930 61.537040 89.451115 -0.000000 -0.000001 0.000001 0.788698 -7.795455 -4.560320 -15.213563 -0.322130 -10.734046 -23.152666 -73.366463 -65.530741 0.000001 0.000001 0.000001 3.684411 -2.257225 7.491661 -8.750479 6.333699 1.392240 -8.250660 -8.429286 3.529062 0.000001 -0.000000 0.000001 25.028644 -0.594233 1.898333 -39.178194 1.776492 4.790953 -13.279836 18.906636 4.899723 -0.000004 -0.000001 0.000000 
68.249283 98.997971 -1.103794 2.828650 8.437129 -1.328863 7.930700 1.098599 -14.349889 -4.975555 -1.020127 0.842407 -1.632506 6.671646 9.363253 -10.682547 -14.839588 8.007084 0.000001 -0.000000 -0.000002 -1.589753 2.923971 -4.956854 -4.857517 -9.621767 -11.451564 -4.603312 -12.196639 22.976847 0.000003 -0.000003 0.000001 2.817351 -2.159073 5.363704 5.809960 -10.455428 4.415012 5.042947 -17.636426 -11.918202 0.000003 0.000000 -0.000001 -58.542835 -17.089782 33.202502 20.069473 -6.289887 -57.971401 2.535639 25.846751 19.123140 0.000001 0.000004 -0.000000 8.091223 3.294518 19.380590 -1.001659 -2.472683 4.887973 -27.903242 -7.172379 -22.352670 -0.000000 0.000002 0.000001 
68.220749 99.002174 -1.105125 4.168427 9.104017 -0.922595 6.707947 1.171014 -14.157579 -5.234873 -0.522386 0.650010 -1.242707 7.276749 9.450023 -11.498070 -14.405636 8.111935 0.000002 -0.000000 -0.000000 -1.156630 3.203687 -6.035351 -4.364253 -8.654478 -13.017728 -3.648973 -9.593444 27.121846 0.000003 0.000000 -0.000000 3.503833 -2.481470 4.963475 6.456532 -7.113525 4.420831 3.184488 -19.259252 -14.568440 0.000004 -0.000001 0.000001 -55.922730 -15.672504 31.820164 22.693751 -8.566112 -55.924363 7.203649 23.876125 15.179196 0.000001 -0.000002 -0.000001 6.682596 3.349946 18.680204 -0.461716 -2.617024 5.320555 -25.559010 -7.966765 -22.105964 -0.000004 0.000000 0.000001 
68.190643 99.023201 -1.096466 4.867846 9.532948 -0.620184 5.920652 1.172687 -13.706775 -4.416902 -0.318158 0.497994 -1.951447 8.132132 9.408875 -11.971880 -14.194833 8.241965 0.000002 0.000000 0.000002 -1.093747 3.948873 -7.016752 -3.994056 -8.969588 -14.146972 -2.606806 -6.829204 30.519638 0.000003 -0.000003 -0.000003 3.891098 -3.542252 4.774995 6.944868 -4.731926 4.759682 2.155291 -19.876392 -16.340101 0.000007 0.000001 0.000001 -52.869936 -14.309304 31.058223 24.342422 -9.942665 -54.079163 10.219653 21.400695 12.011704 0.000003 -0.000000 0.000001 6.479658 3.274363 18.087625 -0.799415 -2.635606 5.672769 -22.681702 -9.046725 -21.890758 -0.000004 0.000000 0.000001 
68.135330 99.068970 -1.069473 6.504787 10.160967 -0.568571 4.713022 1.171846 -12.806634 -5.299018 0.359103 0.013933 -1.152434 7.871670 9.129832 -11.729785 -13.453837 8.576155 0.000000 -0.000001 -0.000000 -1.316198 4.803972 -7.408103 -4.116854 -8.521157 -15.719720 -2.182742 -3.158845 32.997341 0.000002 -0.000001 -0.000002 4.328523 -2.602947 4.492329 7.641102 -3.152216 5.560958 2.147731 -20.634319 -16.357615 0.000001 0.000002 -0.000002 -49.651934 -12.985970 29.759127 23.040050 -8.946108 -51.975390 13.442901 18.394157 8.420220 0.000000 0.000001 0.000003 7.012563 3.607266 18.016304 -2.511934 -1.991087 5.832079 -20.532310 -11.786222 -23.263402 0.000001 0.000000 0.000001 
68.067123 99.126862 -1.014280 8.456564 10.563540 -0.724158 2.047529 1.438956 -12.112812 -3.941049 0.276626 0.076894 -1.659724 8.292060 8.626879 -12.073495 -12.830566 8.330098 0.000001 0.000000 -0.000000 -2.242757 6.273537 -7.031561 -4.412859 -7.381397 -16.255230 -1.302114 4.304585 34.568793 0.000004 -0.000002 0.000003 4.300866 -2.331169 4.463533 8.027387 -2.265052 7.144109 2.908949 -20.778784 -15.661356 0.000001 -0.000002 -0.000002 -46.721984 -11.635255 28.327036 22.752496 -8.473669 -48.968816 13.175209 18.088515 8.438531 0.000003 -0.000001 0.000002 9.993605 3.976934 18.681515 -6.024690 -1.549779 5.526136 -16.025026 -11.338721 -19.837176 -0.000004 0.000001 0.000001 
67.986725 99.196152 -0.935972 8.759734 10.798019 -0.813511 1.697419 1.412555 -11.483892 -5.273248 0.888015 -0.465862 -0.601852 8.364559 8.931403 -12.558369 -12.623549 8.088736 0.000000 0.000000 0.000003 -2.696642 6.606261 -6.529747 -4.669259 -6.307730 -16.466312 -0.791613 12.725380 36.981192 0.000003 0.000000 -0.000003 4.109198 -2.303536 4.520995 7.467932 -1.033114 7.714661 3.840916 -22.011797 -15.301915 0.000004 0.000002 0.000001 -43.537460 -10.546902 27.406856 22.728749 -8.295366 -46.573404 12.260913 19.233471 9.651464 -0.000001 0.000001 -0.000001 12.617504 4.235018 19.023960 -7.802371 -1.219909 5.751477 -12.473946 -10.113653 -16.398560 -0.000002 0.000001 -0.000000 
67.860336 99.301895 -0.804396 9.434622 11.272618 -0.781972 -0.103776 1.522757 -10.821296 -5.048739 1.545909 -1.281835 -0.586156 8.105829 9.260346 -11.879299 -12.476723 8.098951 0.000000 -0.000001 -0.000000 -3.002174 6.612127 -6.016574 -4.929555 -5.250750 -15.692851 -0.359913 18.525683 37.216089 0.000001 0.000002 0.000002 3.776646 -1.871474 4.330019 6.299377 0.337283 8.618758 6.321963 -23.459166 -14.206335 -0.000001 -0.000001 -0.000003 -41.017537 -8.960471 25.203641 23.760806 -8.469206 -42.615172 7.585193 20.282240 12.740629 0.000004 0.000004 0.000001 14.772205 4.134604 18.913029 -8.582483 -1.208314 6.002610 -11.501682 -6.992112 -12.390797 -0.000005 0.000000 0.000002 
67.718460 99.430611 -0.623980 9.548378 11.296938 -0.592974 -1.770896 1.583815 -10.121159 -4.596718 2.340476 -2.200700 -0.330888 8.434711 9.804884 -11.721088 -12.328505 8.137051 0.000002 -0.000002 0.000002 -3.312013 6.494542 -5.175175 -5.250964 -5.395543 -14.701195 -0.295974 22.824624 36.476379 0.000000 -0.000003 0.000003 3.312856 -0.593681 3.907397 4.950848 1.552535 9.429827 9.231012 -24.253781 -12.020417 0.000003 0.000000 -0.000001 -38.551357 -7.393578 22.311399 24.844692 -8.336452 -37.205294 2.642442 19.078335 14.789335 0.000004 0.000006 0.000001 17.790502 4.017461 18.819125 -10.422198 -1.352417 5.917105 -11.565566 -4.605872 -9.678419 -0.000004 0.000001 0.000003 
67.556732 99.577850 -0.413136 9.600335 10.590799 -0.441239 -3.681906 1.724495 -9.907933 -3.577303 2.558221 -2.601788 -0.721592 9.330975 9.983358 -10.814183 -12.323538 8.183364 0.000002 0.000001 -0.000001 -3.469600 6.680492 -4.215729 -5.040994 -5.793784 -13.390089 -0.248328 26.385702 36.364856 -0.000000 -0.000002 0.000001 3.321218 0.130731 3.832563 4.590867 2.592803 11.106583 11.188900 -23.682221 -10.588261 0.000007 -0.000001 -0.000005 -36.756759 -6.097123 19.931986 24.559028 -7.421362 -32.732985 -1.222894 18.502378 16.615514 0.000004 0.000002 0.000003 20.566951 3.907127 18.795432 -12.154690 -1.391447 5.370130 -13.286183 -3.025630 -8.439233 -0.000002 0.000001 0.000001 
67.337250 99.782036 -0.118307 9.727993 8.408531 -0.414902 -5.393071 1.782537 -9.171819 -2.337470 3.034605 -3.471575 -1.666455 10.618718 10.572152 -10.239195 -11.880963 7.744232 0.000002 -0.000001 0.000004 -3.701971 6.771412 -3.160669 -5.095831 -6.927863 -11.770069 -1.045087 31.558295 37.970172 0.000000 0.000002 0.000002 3.319453 1.947342 3.830122 3.232239 4.356063 12.980226 12.113082 -23.019734 -9.379815 0.000001 0.000000 -0.000001 -34.296395 -4.742450 17.816808 23.910030 -6.880874 -27.277680 -5.491814 17.755236 18.273254 0.000001 -0.000004 0.000002 19.972335 3.427876 18.100580 -6.676812 -1.204923 5.991441 -13.844276 -3.349657 -8.589397 0.000005 -0.000001 0.000002 
